<svg width="32" height="32" viewBox="0 0 32 32" fill="none" xmlns="http://www.w3.org/2000/svg">
<g opacity="0.47" clip-path="url(#clip0_2207_9)">
<path d="M23.6017 20.8906C27.6591 18.8091 30.7351 17.223 31.0003 17.0998C31.8484 16.6783 32.7242 15.563 31.0003 14.6966C30.4436 14.4242 27.4468 12.8874 23.6017 10.9058L18.2715 15.9352L23.6017 20.8906Z" fill="#FFD900"/>
<path d="M18.271 15.9351L1.29883 31.9167C1.69718 31.966 2.14697 31.8674 2.67723 31.5951C3.7905 31.0257 15.592 25.0042 23.6012 20.8917L18.271 15.9351Z" fill="#F43249"/>
<path d="M18.272 15.935L23.6022 10.9303C23.6022 10.9303 3.87195 0.870275 2.67822 0.276262C2.22843 0.0273191 1.72455 -0.0466244 1.27344 0.0273191L18.272 15.935Z" fill="#00EE76"/>
<path d="M18.2714 15.9351L1.27288 0.0273438C0.583017 0.176463 0 0.745828 0 1.91044V30.0336C0 31.0996 0.451113 31.8674 1.29926 31.9413L18.2714 15.9351Z" fill="#00D3FF"/>
</g>
<defs>
<clipPath id="clip0_2207_9">
<rect width="32" height="32" fill="white"/>
</clipPath>
</defs>
</svg>
