<svg width="32" height="32" viewBox="0 0 32 32" fill="none" xmlns="http://www.w3.org/2000/svg">
<g clip-path="url(#clip0_2207_6)">
<path d="M7.00798 0H24.992C28.8624 0 32 3.13758 32 7.00798V24.992C32 28.8624 28.8624 32 24.992 32H7.00798C3.13758 32 0 28.8624 0 24.992V7.00798C0 3.13758 3.13758 0 7.00798 0V0Z" fill="url(#paint0_linear_2207_6)"/>
<path d="M10.2544 23.2261L10.2574 23.2271L9.16335 25.1221C8.764 25.8138 7.87944 26.0508 7.18772 25.6514C6.49603 25.2521 6.25902 24.3676 6.65837 23.6758L7.46435 22.2799L7.54169 22.1459C7.67983 21.9473 8.02072 21.6047 8.70259 21.6691C8.70259 21.6691 10.3072 21.8432 10.4233 22.6772C10.4233 22.6772 10.4392 22.9517 10.2544 23.2261ZM25.7724 18.386H22.3606C22.1283 18.3705 22.0268 18.2875 21.9869 18.2393L21.9844 18.2349L18.3322 11.9091L18.3275 11.9123L18.1084 11.5982C17.7495 11.0493 17.1795 12.4533 17.1795 12.4533C16.4989 14.0177 17.276 15.7964 17.547 16.334L22.6197 25.1201C23.019 25.8119 23.9036 26.0489 24.5953 25.6495C25.287 25.2502 25.524 24.3656 25.1247 23.6739L23.8562 21.4769C23.8316 21.4236 23.7888 21.2791 24.049 21.2785H25.7724C26.5711 21.2785 27.2186 20.631 27.2186 19.8323C27.2186 19.0335 26.5711 18.386 25.7724 18.386ZM19.1456 20.3521C19.1456 20.3521 19.3277 21.2785 18.6231 21.2785H17.9184V21.2785H6.0107C5.21197 21.2785 4.56445 20.631 4.56445 19.8323C4.56445 19.0335 5.21197 18.386 6.0107 18.386H9.2532C9.77669 18.3557 9.90081 18.0535 9.90081 18.0535L9.90366 18.0549L14.1362 10.7239L14.1349 10.7237C14.2121 10.5821 14.1479 10.4482 14.1367 10.4271L12.7389 8.00603C12.3395 7.31431 12.5765 6.42978 13.2682 6.03043C13.96 5.63105 14.8445 5.86807 15.2438 6.55979L15.8921 7.68266L16.5392 6.56178C16.9386 5.87006 17.8231 5.63305 18.5148 6.03243C19.2066 6.43181 19.4436 7.31634 19.0442 8.00803L13.1545 18.2093C13.1287 18.2714 13.1209 18.3689 13.3125 18.386H16.833L16.8337 18.4203C16.8337 18.4203 18.8685 18.452 19.1456 20.3521Z" fill="white"/>
</g>
<defs>
<linearGradient id="paint0_linear_2207_6" x1="16" y1="0" x2="16" y2="32" gradientUnits="userSpaceOnUse">
<stop stop-color="#17C9FB"/>
<stop offset="1" stop-color="#1A74E8"/>
</linearGradient>
<clipPath id="clip0_2207_6">
<rect width="32" height="32" fill="white"/>
</clipPath>
</defs>
</svg>
