<svg width="32" height="32" viewBox="0 0 32 32" fill="none" xmlns="http://www.w3.org/2000/svg">
<path d="M4.5463 19.8127C7.05716 19.8127 9.0926 17.6971 9.0926 15.0873C9.0926 12.4775 7.05716 10.3618 4.5463 10.3618C2.03545 10.3618 0 12.4775 0 15.0873C0 17.6971 2.03545 19.8127 4.5463 19.8127Z" fill="#E9500E" fill-opacity="0.47"/>
<path d="M23.4799 9.45089C25.9907 9.45089 28.0262 7.33524 28.0262 4.72545C28.0262 2.11565 25.9907 0 23.4799 0C20.969 0 18.9336 2.11565 18.9336 4.72545C18.9336 7.33524 20.969 9.45089 23.4799 9.45089Z" fill="#E9500E" fill-opacity="0.47"/>
<path d="M14.799 27.2486C13.1921 26.8955 11.681 26.1752 10.3751 25.1399C9.06914 24.1047 8.00115 22.7805 7.2485 21.2632C6.03192 21.8373 4.67544 22.0106 3.36133 21.7598C4.27025 24.0957 5.7173 26.1639 7.57529 27.7824C9.43329 29.4009 11.6453 30.5203 14.017 31.0421C15.0779 31.2784 16.1604 31.3942 17.2453 31.3874C16.4107 30.25 15.9447 28.8667 15.9142 27.4366C15.5397 27.3933 15.1675 27.3306 14.799 27.2486H14.799Z" fill="#E9500E" fill-opacity="0.47"/>
<path d="M22.4565 32.0002C24.9673 32.0002 27.0028 29.8846 27.0028 27.2748C27.0028 24.665 24.9673 22.5493 22.4565 22.5493C19.9456 22.5493 17.9102 24.665 17.9102 27.2748C17.9102 29.8846 19.9456 32.0002 22.4565 32.0002Z" fill="#E9500E" fill-opacity="0.47"/>
<path d="M28.7819 25.539C30.7308 22.9836 31.8523 19.853 31.9862 16.595C32.1201 13.3371 31.2594 10.1185 29.5272 7.39963C29.0021 8.68486 28.1096 9.77127 26.9707 10.5117C27.8801 12.2963 28.325 14.2971 28.2611 16.3155C28.1972 18.3339 27.6267 20.2999 26.6064 22.0185C27.6707 22.9241 28.4322 24.1564 28.7819 25.5391V25.539ZM4.19531 8.31059C4.31068 8.30397 4.42613 8.30071 4.54166 8.3008C5.75977 8.30171 6.95358 8.65506 7.98941 9.32128C8.99159 7.81667 10.3241 6.58175 11.8766 5.7187C13.4291 4.85565 15.1571 4.38928 16.9175 4.35819C16.991 2.96457 17.4722 1.6275 18.2967 0.525894C12.5797 0.05533 7.0245 3.12173 4.19531 8.31055V8.31059Z" fill="#E9500E" fill-opacity="0.47"/>
</svg>
