<svg width="32" height="32" viewBox="0 0 32 32" fill="none" xmlns="http://www.w3.org/2000/svg">
<g opacity="0.47">
<path d="M16 32C24.8366 32 32 24.8366 32 16C32 7.16344 24.8366 0 16 0C7.16344 0 0 7.16344 0 16C0 24.8366 7.16344 32 16 32Z" fill="url(#paint0_linear_2207_160)"/>
<path d="M16.0007 30.7099C24.1246 30.7099 30.7104 24.1241 30.7104 16.0002C30.7104 7.87627 24.1246 1.29053 16.0007 1.29053C7.87676 1.29053 1.29102 7.87627 1.29102 16.0002C1.29102 24.1241 7.87676 30.7099 16.0007 30.7099Z" fill="url(#paint1_linear_2207_160)"/>
<path d="M15.9936 7.12262L16.5807 6.10972C16.942 5.47746 17.7485 5.26456 18.3807 5.62585C19.013 5.98714 19.2259 6.79359 18.8646 7.42585L13.2194 17.2H17.3033C18.6259 17.2 19.3678 18.7549 18.7936 19.8323H6.82589C6.09686 19.8323 5.50977 19.2452 5.50977 18.5162C5.50977 17.7871 6.09686 17.2 6.82589 17.2H10.1807L14.4775 9.75488L13.1356 7.42585C12.7743 6.79359 12.9872 5.99359 13.6194 5.62585C14.2517 5.26456 15.0517 5.47746 15.4194 6.10972L15.9936 7.12262ZM10.9162 21.1871L9.6517 23.3807C9.29041 24.0129 8.48396 24.2258 7.8517 23.8646C7.21944 23.5033 7.00654 22.6968 7.36783 22.0646L8.30977 20.4388C9.36783 20.1097 10.2323 20.3613 10.9162 21.1871ZM21.813 17.2065H25.2388C25.9678 17.2065 26.5549 17.7936 26.5549 18.5226C26.5549 19.2517 25.9678 19.8388 25.2388 19.8388H23.3356L24.6194 22.0646C24.9807 22.6968 24.7678 23.4968 24.1356 23.8646C23.5033 24.2258 22.7033 24.0129 22.3356 23.3807C20.1743 19.6323 18.5485 16.8258 17.4711 14.9549C16.3678 13.0517 17.1549 11.142 17.9356 10.4968C18.8001 11.9807 20.0904 14.2194 21.813 17.2065Z" fill="url(#paint2_linear_2207_160)"/>
</g>
<defs>
<linearGradient id="paint0_linear_2207_160" x1="16" y1="32" x2="16" y2="0" gradientUnits="userSpaceOnUse">
<stop stop-color="#0030C4"/>
<stop offset="1" stop-color="#11C5FC"/>
</linearGradient>
<linearGradient id="paint1_linear_2207_160" x1="16.0007" y1="30.7099" x2="16.0007" y2="1.29053" gradientUnits="userSpaceOnUse">
<stop stop-color="#1665F0"/>
<stop offset="1" stop-color="#13C6FC"/>
</linearGradient>
<linearGradient id="paint2_linear_2207_160" x1="16.0323" y1="5.45017" x2="16.0323" y2="33.7799" gradientUnits="userSpaceOnUse">
<stop stop-color="#EEEEEE"/>
<stop offset="1" stop-color="#D0D0CD"/>
</linearGradient>
</defs>
</svg>
