<svg width="126" height="11" viewBox="0 0 126 11" fill="none" xmlns="http://www.w3.org/2000/svg">
<path fill-rule="evenodd" clip-rule="evenodd" d="M75.4071 5.02414C58.6387 5.21951 41.8621 5.99456 25.1668 7.37992C17.2293 8.0387 8.01148 7.95635 0.313112 10.2023C-0.0704782 10.3153 0.00257516 10.6544 0.010878 10.6883C0.0274836 10.7578 0.0972451 10.9886 0.402789 10.9999C0.436 11.0016 0.670123 10.9693 0.759793 10.958C3.0331 10.6673 5.29812 10.3283 7.57309 10.0538C15.4275 9.10276 23.3053 8.38424 31.1946 7.75453C41.6661 6.91814 52.2273 6.47249 62.727 6.12372C68.4742 5.93319 74.3593 6.18669 80.1247 5.79271C82.242 5.78141 84.3592 5.77983 86.4764 5.78629C95.3272 5.81697 104.168 6.14312 113.004 6.59038C115.845 6.73408 118.012 6.88909 120.794 6.99404C121.85 7.0344 123.525 7.06186 124.691 7.07962C124.862 7.08285 125.299 7.08605 125.48 7.08766C125.498 7.09089 125.516 7.09089 125.536 7.09089C125.606 7.09089 125.639 7.08604 125.646 7.08604C126.041 7.02953 126.004 6.66625 125.994 6.61135C125.993 6.60005 125.933 6.29326 125.593 6.28195C125.511 6.27873 124.928 6.27553 124.704 6.2723C123.545 6.25454 121.876 6.22708 120.825 6.18833C118.049 6.08338 115.883 5.92837 113.047 5.78467C104.198 5.33741 95.3438 5.00964 86.4797 4.97897C85.397 4.97574 84.3127 4.97412 83.23 4.97573C83.1934 4.8837 83.1121 4.78036 82.9328 4.73515C82.765 4.69317 81.5644 4.65604 81.1012 4.6189C77.6721 4.34441 77.7734 4.35733 74.0006 4.13289C68.2866 3.7922 67.4164 3.71466 61.4733 3.57096C50.678 3.30939 39.8777 3.3304 29.0807 3.35624C23.7503 3.37077 18.0429 3.72114 12.6312 3.06721C14.4146 2.86377 16.2047 2.71522 17.9915 2.54568C24.0924 1.96764 30.1983 1.60917 36.3241 1.35729C51.0184 0.753412 65.7359 0.512849 80.4253 1.33632C77.2984 1.36538 74.1733 1.43318 71.0464 1.47677C58.3182 1.65761 45.4671 1.522 32.7655 2.4601C32.538 2.47786 32.367 2.67161 32.3836 2.89282C32.4002 3.11564 32.6011 3.28196 32.8286 3.26581C45.5136 2.3277 58.3465 2.46493 71.0581 2.28409C75.7807 2.21789 80.5017 2.09842 85.2243 2.13394C86.845 2.14686 88.4657 2.205 90.0864 2.22437C90.4069 2.22922 91.2322 2.29057 91.3502 2.26474C91.6109 2.20823 91.6673 2.02091 91.6839 1.92888C91.6922 1.87398 91.7188 1.55751 91.3202 1.44449C88.6002 0.672686 83.5804 0.708208 80.9368 0.556432C66.0664 -0.29933 51.1662 -0.0603689 36.2892 0.549967C30.1484 0.803466 24.0276 1.16355 17.9101 1.74321C15.7729 1.94504 13.6308 2.11942 11.502 2.38745C11.1582 2.43105 10.3861 2.49403 10.0125 2.56023C9.85637 2.58768 9.74344 2.6264 9.69363 2.65385C9.49934 2.76042 9.46447 2.91543 9.46447 3.02038C9.46281 3.10111 9.49768 3.38529 9.90452 3.46279C16.1034 4.6431 22.8486 4.17971 29.0824 4.16356C39.8727 4.13773 50.6647 4.11671 61.4534 4.37828C67.3816 4.52199 68.2484 4.59791 73.9508 4.9386C74.5137 4.97089 74.9903 4.99992 75.4071 5.02414Z" fill="black"/>
</svg>
